<svg width="23" height="26" viewBox="0 0 23 26" fill="none" xmlns="http://www.w3.org/2000/svg">
<path fill-rule="evenodd" clip-rule="evenodd" d="M16.0389 0.205566C16.5203 0.205566 16.911 0.596262 16.911 1.07766L16.9115 2.06348C18.6093 2.17988 20.0194 2.76142 21.0173 3.76148C22.1069 4.85566 22.6801 6.42891 22.6744 8.31611V18.9242C22.6744 22.7986 20.2139 25.2056 16.2546 25.2056H6.41974C2.46045 25.2056 0 22.7649 0 18.8358V8.31378C0 4.65937 2.19424 2.31363 5.77286 2.06388L5.77358 1.07766C5.77358 0.596262 6.16427 0.205566 6.64567 0.205566C7.12706 0.205566 7.51776 0.596262 7.51776 1.07766L7.51741 2.0416H15.1662L15.1668 1.07766C15.1668 0.596262 15.5575 0.205566 16.0389 0.205566ZM20.9301 10.559H1.74418V18.8358C1.74418 21.8195 3.40464 23.4614 6.41974 23.4614H16.2546C19.2697 23.4614 20.9302 21.8498 20.9302 18.9242L20.9301 10.559ZM16.5129 17.8756C16.9943 17.8756 17.385 18.2663 17.385 18.7477C17.385 19.2291 16.9943 19.6198 16.5129 19.6198C16.0316 19.6198 15.6362 19.2291 15.6362 18.7477C15.6362 18.2663 16.0211 17.8756 16.5025 17.8756H16.5129ZM11.3531 17.8756C11.8345 17.8756 12.2252 18.2663 12.2252 18.7477C12.2252 19.2291 11.8345 19.6198 11.3531 19.6198C10.8717 19.6198 10.4763 19.2291 10.4763 18.7477C10.4763 18.2663 10.8612 17.8756 11.3426 17.8756H11.3531ZM6.18241 17.8756C6.66381 17.8756 7.0545 18.2663 7.0545 18.7477C7.0545 19.2291 6.66381 19.6198 6.18241 19.6198C5.70102 19.6198 5.30451 19.2291 5.30451 18.7477C5.30451 18.2663 5.69056 17.8756 6.17195 17.8756H6.18241ZM16.5129 13.3562C16.9943 13.3562 17.385 13.7469 17.385 14.2283C17.385 14.7097 16.9943 15.1004 16.5129 15.1004C16.0316 15.1004 15.6362 14.7097 15.6362 14.2283C15.6362 13.7469 16.0211 13.3562 16.5025 13.3562H16.5129ZM11.3531 13.3562C11.8345 13.3562 12.2252 13.7469 12.2252 14.2283C12.2252 14.7097 11.8345 15.1004 11.3531 15.1004C10.8717 15.1004 10.4763 14.7097 10.4763 14.2283C10.4763 13.7469 10.8612 13.3562 11.3426 13.3562H11.3531ZM6.18241 13.3562C6.66381 13.3562 7.0545 13.7469 7.0545 14.2283C7.0545 14.7097 6.66381 15.1004 6.18241 15.1004C5.70102 15.1004 5.30451 14.7097 5.30451 14.2283C5.30451 13.7469 5.69056 13.3562 6.17195 13.3562H6.18241ZM15.1662 3.78578H7.51741L7.51776 4.90438C7.51776 5.38577 7.12706 5.77647 6.64567 5.77647C6.16427 5.77647 5.77358 5.38577 5.77358 4.90438L5.77296 3.81218C3.16805 4.03101 1.74418 5.61002 1.74418 8.31378V8.81483H20.9301L20.9302 8.31378C20.9348 6.87774 20.5487 5.76147 19.7825 4.99403C19.1098 4.31939 18.1265 3.91648 16.912 3.81274L16.911 4.90438C16.911 5.38577 16.5203 5.77647 16.0389 5.77647C15.5575 5.77647 15.1668 5.38577 15.1668 4.90438L15.1662 3.78578Z" fill="#303030"/>
</svg>
