<svg width="26" height="26" viewBox="0 0 26 26" fill="none" xmlns="http://www.w3.org/2000/svg">
<path fill-rule="evenodd" clip-rule="evenodd" d="M12.6479 0.26709C15.9895 0.26709 19.13 1.56629 21.4887 3.92625C26.3645 8.80203 26.3645 16.7345 21.4887 21.6103C19.0985 24.0016 15.8802 25.2671 12.62 25.2671C10.8428 25.2671 9.05389 24.8914 7.38016 24.1168C6.887 23.919 6.42524 23.7329 6.09376 23.7329C5.71226 23.7353 5.19932 23.9121 4.70383 24.083C3.68727 24.432 2.4218 24.867 1.48549 23.9342C0.552676 23.0002 0.983029 21.7382 1.32964 20.7228C1.50061 20.2227 1.67625 19.7062 1.67625 19.3154C1.67625 18.9944 1.52155 18.585 1.28428 17.9953C-0.89424 13.2905 0.113018 7.6203 3.80824 3.92741C6.16703 1.56745 9.30628 0.26709 12.6479 0.26709ZM12.6491 2.01176C9.77269 2.01176 7.07077 3.13068 5.04114 5.16148C1.86118 8.33911 0.995823 13.2184 2.88589 17.3044C3.15805 17.9778 3.42092 18.6338 3.42092 19.3154C3.42092 19.9959 3.18713 20.6809 2.98126 21.2857C2.81145 21.7836 2.5544 22.5349 2.71956 22.7001C2.88123 22.8676 3.63726 22.6036 4.13623 22.4326C4.73524 22.2279 5.4145 21.9929 6.08794 21.9883C6.76255 21.9883 7.39877 22.2442 8.07222 22.5152C12.1978 24.4227 17.0771 23.555 20.2558 20.3774C24.45 16.1808 24.45 9.35451 20.2558 5.16032C18.225 3.12952 15.5243 2.01176 12.6491 2.01176ZM17.2398 12.0875C17.8818 12.0875 18.4029 12.6074 18.4029 13.2506C18.4029 13.8938 17.8818 14.4137 17.2398 14.4137C16.5977 14.4137 16.072 13.8938 16.072 13.2506C16.072 12.6074 16.5873 12.0875 17.2293 12.0875H17.2398ZM12.5771 12.0875C13.2191 12.0875 13.7402 12.6074 13.7402 13.2506C13.7402 13.8938 13.2191 14.4137 12.5771 14.4137C11.935 14.4137 11.4093 13.8938 11.4093 13.2506C11.4093 12.6074 11.9234 12.0875 12.5666 12.0875H12.5771ZM7.91392 12.0875C8.55596 12.0875 9.07703 12.6074 9.07703 13.2506C9.07703 13.8938 8.55596 14.4137 7.91392 14.4137C7.27188 14.4137 6.74615 13.8938 6.74615 13.2506C6.74615 12.6074 7.26141 12.0875 7.90345 12.0875H7.91392Z" fill="#303030"/>
</svg>
