<svg width="261" height="56" viewBox="0 0 261 56" fill="none" xmlns="http://www.w3.org/2000/svg">
<rect x="0.714355" y="0.749878" width="55" height="55" rx="9" fill="#F4F4F4"/>
<rect x="14.7144" y="12.7499" width="13" height="34" rx="3" fill="#263238"/>
<g style="mix-blend-mode:darken">
<rect x="19.7144" y="12.7499" width="25" height="25" rx="12.5" fill="#4BE3EB"/>
</g>
<path d="M27.1919 13.7499C27.5177 14.1497 27.7144 14.6686 27.7144 15.2358V36.7499C23.0686 35.1483 19.7144 30.5612 19.7144 25.1525C19.7144 19.9487 22.8193 15.5055 27.1919 13.7499Z" fill="#47CFFF"/>
<path d="M66.6744 14.2499H73.4344V42.2499H66.6744V14.2499ZM70.9144 19.8099V14.2499H76.3944C78.7677 14.2499 80.7544 14.6232 82.3544 15.3699C83.981 16.0899 85.2077 17.1299 86.0344 18.4899C86.861 19.8499 87.2744 21.4899 87.2744 23.4099C87.2744 25.2765 86.861 26.9032 86.0344 28.2899C85.2077 29.6499 83.981 30.7032 82.3544 31.4499C80.7544 32.1699 78.7677 32.5299 76.3944 32.5299H70.9144V26.9699H76.3944C77.7544 26.9699 78.821 26.6632 79.5944 26.0499C80.3677 25.4365 80.7544 24.5565 80.7544 23.4099C80.7544 22.2365 80.3677 21.3432 79.5944 20.7299C78.821 20.1165 77.7544 19.8099 76.3944 19.8099H70.9144ZM96.175 23.8499V42.2499H90.215V23.8499H96.175ZM101.495 30.0899C101.175 29.7699 100.828 29.5165 100.455 29.3299C100.108 29.1432 99.6683 29.0499 99.135 29.0499C98.5483 29.0499 98.0283 29.2099 97.575 29.5299C97.1216 29.8499 96.775 30.3165 96.535 30.9299C96.295 31.5432 96.175 32.2899 96.175 33.1699L94.735 31.0499C94.735 29.5832 95.015 28.2765 95.575 27.1299C96.1616 25.9832 96.9216 25.0765 97.855 24.4099C98.7883 23.7432 99.7616 23.4099 100.775 23.4099C101.442 23.4099 102.082 23.5432 102.695 23.8099C103.308 24.0765 103.775 24.4499 104.095 24.9299L101.495 30.0899ZM106.3 16.9299C106.3 15.9699 106.647 15.1965 107.34 14.6099C108.034 13.9965 108.86 13.6899 109.82 13.6899C110.807 13.6899 111.634 13.9965 112.3 14.6099C112.994 15.1965 113.34 15.9699 113.34 16.9299C113.34 17.8899 112.994 18.6765 112.3 19.2899C111.634 19.9032 110.807 20.2099 109.82 20.2099C108.86 20.2099 108.034 19.9032 107.34 19.2899C106.647 18.6765 106.3 17.8899 106.3 16.9299ZM106.9 23.8499H112.74V42.2499H106.9V23.8499ZM145.795 30.4099V42.2499H139.715V31.0499C139.715 29.9299 139.528 29.0899 139.155 28.5299C138.808 27.9432 138.222 27.6499 137.395 27.6499C136.862 27.6499 136.382 27.7832 135.955 28.0499C135.555 28.2899 135.235 28.6632 134.995 29.1699C134.782 29.6765 134.675 30.3032 134.675 31.0499V42.2499H128.595V31.0499C128.595 29.9299 128.408 29.0899 128.035 28.5299C127.688 27.9432 127.102 27.6499 126.275 27.6499C125.742 27.6499 125.262 27.7832 124.835 28.0499C124.435 28.2899 124.115 28.6632 123.875 29.1699C123.662 29.6765 123.555 30.3032 123.555 31.0499V42.2499H117.715V23.8499H123.555V26.5699C124.062 25.5832 124.755 24.8099 125.635 24.2499C126.542 23.6899 127.622 23.4099 128.875 23.4099C130.315 23.4099 131.462 23.6765 132.315 24.2099C133.168 24.7165 133.782 25.4632 134.155 26.4499C134.822 25.4899 135.648 24.7432 136.635 24.2099C137.622 23.6765 138.742 23.4099 139.995 23.4099C141.435 23.4099 142.568 23.6899 143.395 24.2499C144.248 24.7832 144.862 25.5699 145.235 26.6099C145.608 27.6499 145.795 28.9165 145.795 30.4099ZM159.887 42.6499C157.754 42.6499 155.901 42.2632 154.327 41.4899C152.781 40.6899 151.581 39.5699 150.727 38.1299C149.874 36.6899 149.447 34.9965 149.447 33.0499C149.447 31.0765 149.861 29.3699 150.687 27.9299C151.514 26.4899 152.701 25.3832 154.247 24.6099C155.821 23.8365 157.674 23.4499 159.807 23.4499C161.941 23.4499 163.741 23.8232 165.207 24.5699C166.674 25.2899 167.794 26.3432 168.567 27.7299C169.341 29.1165 169.727 30.7965 169.727 32.7699C169.727 33.0632 169.727 33.3565 169.727 33.6499C169.727 33.9165 169.701 34.1432 169.647 34.3299H152.847V30.9699H164.207L162.767 32.8099C162.901 32.6232 163.007 32.3965 163.087 32.1299C163.194 31.8365 163.247 31.5965 163.247 31.4099C163.247 30.6099 163.101 29.9165 162.807 29.3299C162.514 28.7432 162.101 28.2899 161.567 27.9699C161.034 27.6499 160.407 27.4899 159.687 27.4899C158.781 27.4899 158.021 27.6899 157.407 28.0899C156.794 28.4899 156.327 29.1032 156.007 29.9299C155.714 30.7299 155.554 31.7432 155.527 32.9699C155.527 34.0899 155.687 35.0499 156.007 35.8499C156.327 36.6499 156.807 37.2632 157.447 37.6899C158.087 38.0899 158.874 38.2899 159.807 38.2899C160.874 38.2899 161.781 38.0899 162.527 37.6899C163.301 37.2899 163.914 36.6899 164.367 35.8899L169.767 37.2099C168.807 39.0232 167.501 40.3832 165.847 41.2899C164.221 42.1965 162.234 42.6499 159.887 42.6499ZM179.817 28.2499C179.817 29.9565 180.204 31.4365 180.977 32.6899C181.751 33.9165 182.764 34.8499 184.017 35.4899C185.297 36.1299 186.697 36.4499 188.217 36.4499C189.551 36.4499 190.724 36.2765 191.737 35.9299C192.751 35.5832 193.657 35.1299 194.457 34.5699C195.257 34.0099 195.964 33.4099 196.577 32.7699V40.0499C195.457 40.9299 194.231 41.6232 192.897 42.1299C191.564 42.6365 189.871 42.8899 187.817 42.8899C185.577 42.8899 183.511 42.5432 181.617 41.8499C179.724 41.1565 178.097 40.1565 176.737 38.8499C175.377 37.5432 174.324 35.9965 173.577 34.2099C172.831 32.4232 172.457 30.4365 172.457 28.2499C172.457 26.0632 172.831 24.0765 173.577 22.2899C174.324 20.5032 175.377 18.9565 176.737 17.6499C178.097 16.3432 179.724 15.3432 181.617 14.6499C183.511 13.9565 185.577 13.6099 187.817 13.6099C189.871 13.6099 191.564 13.8632 192.897 14.3699C194.231 14.8765 195.457 15.5699 196.577 16.4499V23.7299C195.964 23.0899 195.257 22.4899 194.457 21.9299C193.657 21.3432 192.751 20.8899 191.737 20.5699C190.724 20.2232 189.551 20.0499 188.217 20.0499C186.697 20.0499 185.297 20.3699 184.017 21.0099C182.764 21.6499 181.751 22.5832 180.977 23.8099C180.204 25.0365 179.817 26.5165 179.817 28.2499ZM209.104 29.5699H216.104L224.864 42.2499H216.944L209.104 29.5699ZM202.104 14.2499H208.864V42.2499H202.104V14.2499ZM206.344 19.9699V14.2499H212.304C214.704 14.2499 216.704 14.6365 218.304 15.4099C219.904 16.1832 221.117 17.2632 221.944 18.6499C222.771 20.0099 223.184 21.5965 223.184 23.4099C223.184 25.1965 222.771 26.7832 221.944 28.1699C221.117 29.5299 219.904 30.5965 218.304 31.3699C216.704 32.1432 214.704 32.5299 212.304 32.5299H206.344V27.2899H211.824C212.731 27.2899 213.504 27.1565 214.144 26.8899C214.811 26.5965 215.317 26.1832 215.664 25.6499C216.011 25.0899 216.184 24.4232 216.184 23.6499C216.184 22.8765 216.011 22.2232 215.664 21.6899C215.317 21.1299 214.811 20.7032 214.144 20.4099C213.504 20.1165 212.731 19.9699 211.824 19.9699H206.344ZM235.202 27.9699L233.522 42.2499H226.402L230.922 12.8499L242.842 29.9299L254.802 12.8499L259.322 42.2499H252.202L250.522 27.9699L242.842 39.6499L235.202 27.9699Z" fill="white"/>
</svg>
