<svg width="94" height="33" viewBox="0 0 94 33" fill="none" xmlns="http://www.w3.org/2000/svg">
<path d="M39.8689 24.7671L38.4724 20.8022H33.0134L31.6169 24.7671H29.1462L34.4587 10.4312H37.0564L42.3591 24.7671H39.8689ZM37.8669 18.7905L36.5095 14.8843C36.4574 14.715 36.3826 14.4774 36.2849 14.1714C36.1873 13.8589 36.0896 13.5431 35.9919 13.2241C35.8943 12.8986 35.8129 12.6252 35.7478 12.4038C35.6827 12.6707 35.6013 12.9702 35.5037 13.3022C35.4125 13.6278 35.3214 13.9338 35.2302 14.2202C35.1456 14.5067 35.0805 14.728 35.0349 14.8843L33.6677 18.7905H37.8669ZM47.6423 24.9624C46.3533 24.9624 45.3181 24.4937 44.5369 23.5562C43.7621 22.6121 43.3748 21.2222 43.3748 19.3862C43.3748 17.5308 43.7686 16.1278 44.5564 15.1772C45.3507 14.2267 46.3956 13.7515 47.6912 13.7515C48.238 13.7515 48.7166 13.8263 49.1267 13.9761C49.5369 14.1193 49.8884 14.3146 50.1814 14.562C50.4809 14.8094 50.7348 15.0861 50.9431 15.3921H51.0505C51.018 15.1903 50.9789 14.9006 50.9333 14.5229C50.8943 14.1388 50.8748 13.784 50.8748 13.4585V9.57178H53.1794V24.7671H51.3826L50.9724 23.2925H50.8748C50.6794 23.605 50.432 23.8882 50.1326 24.1421C49.8396 24.3895 49.488 24.5881 49.0779 24.7378C48.6742 24.8875 48.1957 24.9624 47.6423 24.9624ZM48.2869 23.0972C49.2699 23.0972 49.9633 22.814 50.3669 22.2476C50.7706 21.6812 50.9789 20.8315 50.9919 19.6987V19.396C50.9919 18.1851 50.7966 17.2573 50.406 16.6128C50.0154 15.9618 49.3025 15.6362 48.2673 15.6362C47.4405 15.6362 46.809 15.9715 46.3728 16.6421C45.9431 17.3062 45.7283 18.2339 45.7283 19.4253C45.7283 20.6167 45.9431 21.5282 46.3728 22.1597C46.809 22.7847 47.447 23.0972 48.2869 23.0972ZM68.6873 13.7515C69.8982 13.7515 70.8097 14.064 71.4216 14.689C72.0401 15.314 72.3494 16.3166 72.3494 17.6968V24.7671H70.0544V18.1069C70.0544 17.2866 69.8949 16.6681 69.5759 16.2515C69.2569 15.8348 68.7719 15.6265 68.1208 15.6265C67.2094 15.6265 66.5518 15.9194 66.1482 16.5054C65.7511 17.0848 65.5525 17.9279 65.5525 19.0347V24.7671H63.2576V18.1069C63.2576 17.5601 63.186 17.1043 63.0427 16.7397C62.906 16.3687 62.6944 16.092 62.408 15.9097C62.1215 15.7209 61.7602 15.6265 61.324 15.6265C60.6925 15.6265 60.1879 15.7697 59.8103 16.0562C59.4392 16.3426 59.1723 16.7658 59.0095 17.3257C58.8468 17.8791 58.7654 18.5594 58.7654 19.3667V24.7671H56.4705V13.9565H58.2576L58.5798 15.4116H58.7068C58.9281 15.034 59.2016 14.7248 59.5271 14.4839C59.8591 14.2365 60.227 14.0542 60.6306 13.937C61.0343 13.8133 61.4542 13.7515 61.8904 13.7515C62.6977 13.7515 63.378 13.8947 63.9314 14.1812C64.4848 14.4611 64.8982 14.8908 65.1716 15.4702H65.3474C65.686 14.8843 66.158 14.4513 66.7634 14.1714C67.3689 13.8914 68.0102 13.7515 68.6873 13.7515ZM77.8474 13.9565V24.7671H75.5525V13.9565H77.8474ZM76.7146 9.81592C77.0662 9.81592 77.3689 9.91032 77.6228 10.0991C77.8832 10.2879 78.0134 10.6134 78.0134 11.0757C78.0134 11.5314 77.8832 11.8569 77.6228 12.0522C77.3689 12.241 77.0662 12.3354 76.7146 12.3354C76.35 12.3354 76.0408 12.241 75.7869 12.0522C75.5395 11.8569 75.4158 11.5314 75.4158 11.0757C75.4158 10.6134 75.5395 10.2879 75.7869 10.0991C76.0408 9.91032 76.35 9.81592 76.7146 9.81592ZM86.7732 13.7515C87.9906 13.7515 88.9379 14.0672 89.615 14.6987C90.2986 15.3237 90.6404 16.3296 90.6404 17.7163V24.7671H88.3455V18.146C88.3455 17.3062 88.1729 16.6779 87.8279 16.2612C87.4828 15.8381 86.949 15.6265 86.2263 15.6265C85.1781 15.6265 84.449 15.9487 84.0388 16.5933C83.6352 17.2378 83.4333 18.172 83.4333 19.396V24.7671H81.1384V13.9565H82.9255L83.2478 15.4214H83.3748C83.6091 15.0438 83.8988 14.7345 84.2439 14.4937C84.5955 14.2463 84.9861 14.0607 85.4158 13.937C85.852 13.8133 86.3044 13.7515 86.7732 13.7515Z" fill="#7D7D7D"/>
<path fill-rule="evenodd" clip-rule="evenodd" d="M10.4917 19.9536C14.7672 19.9536 20.4517 20.435 20.4517 24.6003C20.4517 28.988 13.8281 29.2513 10.9869 29.2671L9.9553 29.2671C6.92589 29.2514 0.531738 28.9896 0.531738 24.6266C0.531738 20.2339 7.15541 19.9704 9.99661 19.9546L10.338 19.9536C10.3912 19.9536 10.4425 19.9536 10.4917 19.9536ZM10.4917 21.9214C6.84594 21.9214 2.4996 22.3898 2.4996 24.6266C2.4996 26.4003 5.18901 27.3002 10.4917 27.3002C15.7945 27.3002 18.4839 26.3911 18.4839 24.6003C18.4839 22.8227 15.7945 21.9214 10.4917 21.9214ZM10.4917 4.26709C14.2057 4.26709 17.2284 7.28972 17.2284 11.0037C17.2362 12.7932 16.5422 14.4829 15.2776 15.7555C14.0155 17.0293 12.3297 17.7338 10.5363 17.7404H10.4917C6.77641 17.7404 3.75378 14.7177 3.75378 11.0037C3.75378 7.28972 6.77641 4.26709 10.4917 4.26709ZM10.4917 6.23495C7.86136 6.23495 5.72164 8.37467 5.72164 11.0037C5.72164 13.6328 7.86136 15.7725 10.4917 15.7725H10.5324C11.7971 15.7673 12.9883 15.27 13.8817 14.3688C14.7764 13.4701 15.2658 12.275 15.2606 11.0077C15.2606 8.37467 13.1208 6.23495 10.4917 6.23495Z" fill="#303030"/>
</svg>
