<svg width="23" height="22" viewBox="0 0 23 22" fill="none" xmlns="http://www.w3.org/2000/svg">
<path d="M16.4804 2.32536C17.7092 2.32889 18.8866 2.80018 19.7555 3.6363C20.6244 4.47242 21.1142 5.60542 21.1178 6.78786V15.7119C21.1142 16.8944 20.6244 18.0274 19.7555 18.8635C18.8866 19.6996 17.7092 20.1709 16.4804 20.1744H7.20648C5.97768 20.1709 4.80026 19.6996 3.93137 18.8635C3.06247 18.0274 2.57271 16.8944 2.56904 15.7119V6.78786C2.57271 5.60542 3.06247 4.47242 3.93137 3.6363C4.80026 2.80018 5.97768 2.32889 7.20648 2.32536H16.4804ZM16.4804 0.540649H7.20648C3.63574 0.540649 0.714355 3.35182 0.714355 6.78786V15.7119C0.714355 19.1479 3.63574 21.9591 7.20648 21.9591H16.4804C20.0511 21.9591 22.9725 19.1479 22.9725 15.7119V6.78786C22.9725 3.35182 20.0511 0.540649 16.4804 0.540649Z" fill="white"/>
<path d="M17.8717 6.78827C17.5965 6.78827 17.3276 6.70976 17.0988 6.56267C16.87 6.41557 16.6917 6.2065 16.5864 5.9619C16.4811 5.71729 16.4536 5.44813 16.5073 5.18846C16.561 4.92879 16.6934 4.69026 16.888 4.50305C17.0826 4.31583 17.3304 4.18834 17.6003 4.13668C17.8701 4.08503 18.1498 4.11154 18.404 4.21286C18.6582 4.31418 18.8755 4.48576 19.0284 4.7059C19.1812 4.92604 19.2628 5.18486 19.2628 5.44962C19.2632 5.62552 19.2275 5.79976 19.1577 5.96234C19.0879 6.12493 18.9855 6.27265 18.8562 6.39703C18.727 6.52141 18.5735 6.62 18.4045 6.68714C18.2355 6.75428 18.0545 6.78865 17.8717 6.78827ZM11.8436 7.68039C12.5773 7.68039 13.2946 7.88976 13.9047 8.28203C14.5148 8.67429 14.9903 9.23184 15.2711 9.88415C15.5518 10.5365 15.6253 11.2543 15.4822 11.9467C15.339 12.6392 14.9857 13.2753 14.4669 13.7746C13.948 14.2739 13.287 14.6139 12.5674 14.7516C11.8477 14.8893 11.1018 14.8187 10.4239 14.5485C9.746 14.2783 9.1666 13.8207 8.75896 13.2336C8.35132 12.6466 8.13374 11.9564 8.13374 11.2503C8.13479 10.3038 8.52598 9.39638 9.22149 8.72711C9.917 8.05784 10.86 7.6814 11.8436 7.68039ZM11.8436 5.89568C10.743 5.89568 9.66719 6.20972 8.7521 6.79809C7.83702 7.38646 7.1238 8.22274 6.70263 9.20117C6.28146 10.1796 6.17127 11.2562 6.38598 12.2949C6.60069 13.3336 7.13066 14.2877 7.90887 15.0366C8.68709 15.7854 9.67859 16.2954 10.758 16.502C11.8374 16.7086 12.9563 16.6026 13.9731 16.1973C14.9898 15.792 15.8589 15.1057 16.4703 14.2252C17.0818 13.3446 17.4081 12.3093 17.4081 11.2503C17.4081 9.83016 16.8219 8.46819 15.7783 7.46401C14.7348 6.45982 13.3194 5.89568 11.8436 5.89568Z" fill="white"/>
</svg>
