<svg width="23" height="23" viewBox="0 0 23 23" fill="none" xmlns="http://www.w3.org/2000/svg">
<path d="M20.454 0.374878H2.30206C1.3102 0.374878 0.443604 1.08855 0.443604 2.06875V20.261C0.443604 21.2466 1.3102 22.1248 2.30206 22.1248H20.4487C21.4459 22.1248 22.1935 21.2407 22.1935 20.261V2.06875C22.1994 1.08855 21.4459 0.374878 20.454 0.374878ZM7.1856 18.5045H4.06972V8.81657H7.1856V18.5045ZM5.73544 7.34359H5.71311C4.71591 7.34359 4.07021 6.60128 4.07021 5.67205C4.07021 4.72584 4.7329 4.001 5.75243 4.001C6.77196 4.001 7.39581 4.72049 7.41815 5.67205C7.41766 6.60128 6.77196 7.34359 5.73544 7.34359ZM18.5732 18.5045H15.4574V13.2073C15.4574 11.9383 15.0039 11.0712 13.8766 11.0712C13.0154 11.0712 12.5056 11.6538 12.2789 12.2213C12.1939 12.4252 12.1711 12.7029 12.1711 12.9864V18.5045H9.05522V8.81657H12.1711V10.1648C12.6245 9.51907 13.3329 8.58985 14.9811 8.58985C17.0265 8.58985 18.5737 9.93805 18.5737 12.8447L18.5732 18.5045Z" fill="white"/>
</svg>
