<svg width="23" height="18" viewBox="0 0 23 18" fill="none" xmlns="http://www.w3.org/2000/svg">
<path d="M22.4435 2.70131C21.6381 3.05102 20.7859 3.28141 19.9139 3.38521C20.8303 2.84899 21.5195 1.9971 21.8521 0.989324C20.9857 1.49559 20.0394 1.8508 19.0537 2.03976C18.6387 1.60507 18.1395 1.25927 17.5865 1.02336C17.0335 0.787455 16.4383 0.666378 15.8371 0.667488C13.4028 0.667488 11.4328 2.60744 11.4328 4.99886C11.4311 5.3315 11.4693 5.66314 11.5465 5.98672C9.8009 5.90494 8.09165 5.45997 6.52804 4.68027C4.96444 3.90056 3.58092 2.8033 2.46599 1.45867C2.07485 2.11759 1.86799 2.8694 1.86704 3.63553C1.86704 5.13743 2.65118 6.465 3.83522 7.24277C3.13371 7.22613 2.44658 7.0406 1.83215 6.70191V6.75555C1.83215 8.85642 3.35302 10.6042 5.36593 11.002C4.9874 11.1028 4.59734 11.1539 4.2056 11.154C3.92763 11.1545 3.65029 11.1275 3.37762 11.0735C3.93721 12.7944 5.56588 14.046 7.49514 14.0818C5.92748 15.2891 4.00279 15.9416 2.0236 15.9368C1.67229 15.9363 1.3213 15.9154 0.972412 15.8742C2.98585 17.159 5.32632 17.8386 7.71522 17.8321C15.8277 17.8321 20.2597 11.23 20.2597 5.50396C20.2597 5.31623 20.2548 5.12849 20.2458 4.94522C21.106 4.33376 21.8502 3.57389 22.4435 2.70131Z" fill="white"/>
</svg>
