<svg width="27" height="20" viewBox="0 0 27 20" fill="none" xmlns="http://www.w3.org/2000/svg">
<path d="M26.0265 4.9451C26.0265 2.7186 24.3455 0.927503 22.2683 0.927503C19.4546 0.799356 16.5851 0.749878 13.6526 0.749878H12.7385C9.8131 0.749878 6.93851 0.799356 4.12488 0.927998C2.05274 0.927998 0.371669 2.72899 0.371669 4.95549C0.2447 6.71641 0.190865 8.47782 0.193912 10.2392C0.188834 12.0006 0.246393 13.7637 0.36659 15.5284C0.36659 17.7549 2.04766 19.5609 4.1198 19.5609C7.07564 19.6944 10.1077 19.7538 13.1905 19.7489C16.2784 19.7588 19.3019 19.6961 22.2611 19.5609C24.3384 19.5609 26.0194 17.7549 26.0194 15.5284C26.1413 13.762 26.1972 12.0006 26.1921 10.2343C26.2036 8.47287 26.1484 6.70981 26.0265 4.9451ZM10.707 15.093V5.37061L18.0712 10.2293L10.707 15.093Z" fill="white"/>
</svg>
